<svg xmlns="http://www.w3.org/2000/svg" width="21" height="21" viewBox="0 0 21 21"><g id="Right_Bar" data-name="Right Bar" transform="translate(-2124 -2665)"><g id="Эллипс_362" data-name="Эллипс 362" transform="translate(2124 2665)" fill="none" stroke="#18191a" stroke-width="1.5"><circle cx="2.5" cy="2.5" r="2.5" stroke="none"></circle><circle cx="2.5" cy="2.5" r="1.75" fill="none"></circle></g><g id="Эллипс_363" data-name="Эллипс 363" transform="translate(2132 2665)" fill="none" stroke="#18191a" stroke-width="1.5"><circle cx="2.5" cy="2.5" r="2.5" stroke="none"></circle><circle cx="2.5" cy="2.5" r="1.75" fill="none"></circle></g><g id="Эллипс_364" data-name="Эллипс 364" transform="translate(2140 2665)" fill="none" stroke="#18191a" stroke-width="1.5"><circle cx="2.5" cy="2.5" r="2.5" stroke="none"></circle><circle cx="2.5" cy="2.5" r="1.75" fill="none"></circle></g><g id="Эллипс_365" data-name="Эллипс 365" transform="translate(2124 2673)" fill="none" stroke="#18191a" stroke-width="1.5"><circle cx="2.5" cy="2.5" r="2.5" stroke="none"></circle><circle cx="2.5" cy="2.5" r="1.75" fill="none"></circle></g><g id="Эллипс_366" data-name="Эллипс 366" transform="translate(2132 2673)" fill="none" stroke="#18191a" stroke-width="1.5"><circle cx="2.5" cy="2.5" r="2.5" stroke="none"></circle><circle cx="2.5" cy="2.5" r="1.75" fill="none"></circle></g><g id="Эллипс_367" data-name="Эллипс 367" transform="translate(2140 2673)" fill="none" stroke="#18191a" stroke-width="1.5"><circle cx="2.5" cy="2.5" r="2.5" stroke="none"></circle><circle cx="2.5" cy="2.5" r="1.75" fill="none"></circle></g><g id="Эллипс_368" data-name="Эллипс 368" transform="translate(2124 2681)" fill="none" stroke="#18191a" stroke-width="1.5"><circle cx="2.5" cy="2.5" r="2.5" stroke="none"></circle><circle cx="2.5" cy="2.5" r="1.75" fill="none"></circle></g><g id="Эллипс_369" data-name="Эллипс 369" transform="translate(2132 2681)" fill="none" stroke="#18191a" stroke-width="1.5"><circle cx="2.5" cy="2.5" r="2.5" stroke="none"></circle><circle cx="2.5" cy="2.5" r="1.75" fill="none"></circle></g><g id="Эллипс_370" data-name="Эллипс 370" transform="translate(2140 2681)" fill="none" stroke="#18191a" stroke-width="1.5"><circle cx="2.5" cy="2.5" r="2.5" stroke="none"></circle><circle cx="2.5" cy="2.5" r="1.75" fill="none"></circle></g></g></svg>